<svg id="Ebene_1" data-name="Ebene 1" xmlns="http://www.w3.org/2000/svg" viewBox="0 0 3919.22 439.25"><title>Fightcore_Wordmark</title><g id="Wordmark"><path d="M2985.35,1970.09l23.34-29.84-49.38-137.91a32.47,32.47,0,0,0-34.47-21.3c-31.6,3.85-81.36,14.4-112.77,25.14-127.18,43.61-109.39,116.28-109.39,116.28l31.94,184.37-4.56,51.24-3.09.19h0a74,74,0,0,1-58.54-116.71c.7-1,1.42-2,2.17-2.92a92.8,92.8,0,0,0-67.35,86.85c0,.4,0,2.78,0,2.78-.81,28.15,20,50.5,48,63.49,25.78,11.94,64.2,13.31,99.46,11q5.61-.36,11.09-.84a630.4,630.4,0,0,0,75.73-11.34c41.69,2.1,70,29.45,70,29.45l-2.68-49s119-46.48,149.37-113S2985.35,1970.09,2985.35,1970.09ZM2919,1800l.11,0c1.2-.31,11.81-2.85,19.18,4.51l.11.12a22,22,0,0,1,5.18,9.07s6.44,21,6.44,21l-.07,0-9.6,2.62-26.74,7.32-10.53-40.06Zm-42.65,12.24,10.44,39.74-30.45,8.33-.14,0-10.32-39.28C2856.86,1817.92,2867.67,1814.77,2876.38,1812.26Zm-79.83,24.7c5.58-2.41,11.59-4.68,18.08-6.75q2.25-.72,4.56-1.41l30.45,115.88-31.14,8.52-29.61-112.7C2791.34,1839.29,2793.9,1838.11,2796.55,1837Zm-69.78,71.54h0a91.93,91.93,0,0,1,4.92-13.88,103.6,103.6,0,0,1,23.72-31.55c1.12-.82,2.28-1.61,3.48-2.36l34.53,99.37-23,6.29C2763.51,1956.89,2736.51,1917.07,2726.77,1908.5Zm75.93,242.71-9.39,1-8,.83c-23,2.41-25.62,2.8-25.62,2.8l.34-3.18.13-1.25.46-4.27,5.38-50.21-8.24-38.23-2.06-9.58-5-23.12-1.83-8.49-1-4.77-10.55-48.92,20.66,36,67.13-18.36s-28.5,41.12-20.46,78.42c0,0,13.38-67.33,78.22-96s70.57-63.12,70.57-63.12-30.41,24.67-74.59,14.92c0,0-9.91-12.83-5.68-26.4L2949,1868.5l11.56-3.16.94-.25,21.8,66.36-123,126.23,2.3,64.07S2841.91,2147.19,2802.7,2151.21Zm185-91.62c-5.36,40-89.13,68.28-89.13,68.28l-5.16-69.81,43.22-40.35S2993,2019.62,2987.65,2059.59Z" transform="translate(-40.78 -1780.81)"/><polygon points="379.73 95.5 351.9 0.74 0 0.74 27.83 53.75 27.83 385.77 0 438.79 179.59 438.79 151.76 385.77 151.76 267.15 264.42 267.15 309.48 292.99 309.48 146.53 264.42 172.38 151.76 172.38 151.76 95.5 379.73 95.5"/><polygon points="654.75 0.74 475.16 0.74 502.99 54.42 502.99 385.77 475.16 438.79 654.75 438.79 626.92 385.77 626.92 54.42 654.75 0.74"/><polygon points="929.77 267.15 963.57 267.15 963.57 344.02 873.44 344.02 873.44 95.5 963.57 95.5 963.57 139.91 1087.5 139.91 1087.5 41.16 1047.73 0.74 788.61 0.74 749.51 41.16 749.51 398.36 788.61 438.79 1047.73 438.79 1087.5 398.36 1087.5 204.19 1104.06 172.38 901.94 172.38 929.77 267.15"/><polygon points="1583.86 0.74 1404.27 0.74 1432.1 53.75 1432.1 172.38 1341.97 172.38 1341.97 53.75 1369.81 0.74 1190.21 0.74 1218.05 53.75 1218.05 385.77 1190.21 438.79 1369.81 438.79 1341.97 385.77 1341.97 267.15 1432.1 267.15 1432.1 385.77 1404.27 438.79 1583.2 438.79 1555.37 385.77 1555.37 53.75 1583.86 0.74"/><polygon points="2080.89 95.5 2053.05 0.74 1697.84 0.74 1670.01 95.5 1813.15 95.5 1813.15 385.77 1785.32 438.79 1964.91 438.79 1937.08 385.77 1937.08 95.5 2080.89 95.5"/><polygon points="2364.52 139.24 2521.58 139.24 2505.01 108.1 2505.01 41.16 2465.25 0.74 2206.13 0.74 2167.03 41.16 2167.03 398.36 2206.13 438.79 2465.25 438.79 2505.01 398.36 2505.01 332.09 2521.58 300.28 2364.52 300.28 2381.08 332.09 2381.08 344.02 2290.95 344.02 2290.95 95.5 2381.08 95.5 2381.08 108.1 2364.52 139.24"/><path d="M3466.29,2028.07l-31.15-31.81,31.15-31.15V1822l-39.76-40.43H3100.48l27.83,53v332l-27.83,53h179.59l-27.83-53V2048h61.63l28.49,28.5v143.14h151.76l-27.83-53Zm-123.93-74.89h-90.12v-76.87h90.12Z" transform="translate(-40.78 -1780.81)"/><polygon points="3691.24 267.15 3815.17 267.15 3860.24 292.99 3860.24 146.53 3815.17 172.38 3691.24 172.38 3691.24 95.5 3919.22 95.5 3891.38 0.74 3539.48 0.74 3567.32 53.75 3567.32 385.77 3539.48 438.79 3891.38 438.79 3919.22 344.02 3691.24 344.02 3691.24 267.15"/></g></svg>