<?xml version="1.0" encoding="utf-8"?>
<!-- Generator: Adobe Illustrator 23.0.3, SVG Export Plug-In . SVG Version: 6.00 Build 0)  -->
<svg version="1.1" id="Ebene_1" xmlns="http://www.w3.org/2000/svg" xmlns:xlink="http://www.w3.org/1999/xlink" x="0px" y="0px"
	 viewBox="0 0 4000 4000" style="enable-background:new 0 0 4000 4000;" xml:space="preserve">
<style type="text/css">
	.st0{fill:#FFFFFF;}
</style>
<path id="Left_5_" class="st0" d="M3330.14,1737.48L3532,1479.36L3104.89,286.32c-44.21-123.5-167.99-200.1-298.2-184.25
	c-273.38,33.26-703.89,124.49-975.58,217.44C730.82,696.75,884.69,1325.49,884.69,1325.49L1161,2920.49l-39.43,443.24
	c-8.87,0.6-17.79,1.14-26.72,1.62c0,0,0,0-0.02,0c-345.99-8.75-623.79-292-623.79-640.1c0-48.55,5.41-95.83,15.65-141.28
	c18.78-83.44,53.86-160.71,101.72-228.3c6.06-8.57,12.33-16.98,18.78-25.22c-330.1,93.68-573.56,393.39-582.62,751.32
	c-0.08,3.44-0.26,24.02-0.26,24.02c-7.03,243.6,172.6,436.94,415.3,549.32c223,103.24,555.39,115.16,860.48,95.47
	c32.35-2.08,64.38-4.52,95.95-7.25c357.73-30.86,655.13-98.15,655.13-98.15c360.7,18.2,605.57,254.8,605.57,254.8l-23.16-423.57
	c0,0,1029.14-402.06,1292.22-977.85S3330.14,1737.48,3330.14,1737.48z M2756.39,266.23c0,0,0.33-0.1,0.96-0.26
	c10.36-2.73,102.14-24.65,165.89,39c0.35,0.31,0.68,0.66,1.01,1.01c18.08,18.38,33.85,43.75,44.76,78.54
	c0.07,0.22,55.74,181.7,55.74,181.7l-0.58,0.17l-83.04,22.72l-231.36,63.3l-91.07-346.57
	C2645.48,298.13,2737.21,271.76,2756.39,266.23z M2387.44,372.11l90.32,343.77l-263.41,72.06l-1.24,0.33l-89.28-339.82
	C2218.59,421.07,2312.07,393.85,2387.44,372.11z M1696.8,585.81c48.25-20.86,100.3-40.49,156.44-58.46
	c12.92-4.14,26.08-8.19,39.46-12.14l263.41,1002.5l-269.43,73.71L1630.5,616.41C1651.77,605.95,1673.85,595.74,1696.8,585.81z
	 M1093.18,1204.62c0-0.03,0.02-0.08,0.03-0.15c0.94-3.79,13.42-53.74,42.59-120.06c35.06-73.96,97.21-173.37,205.17-272.89
	c9.71-7.15,19.76-14,30.16-20.47l298.67,859.71l-198.66,54.35c-60.18-81.79-293.7-426.33-377.97-500.42
	C1093.17,1204.71,1093.17,1204.67,1093.18,1204.62z M1750.03,3304.35c-29.32,3.01-56.35,5.79-81.27,8.36
	c-25.22,2.61-48.26,5-69.33,7.2c-199.09,20.78-221.68,24.16-221.68,24.16l2.95-27.48l1.16-10.77l3.95-37l46.54-434.36l-71.26-330.7
	l-17.87-82.89l-43.12-200.04l-15.83-73.46l-8.89-41.22l-91.22-423.27l178.69,311.06l580.75-158.84c0,0-246.53,355.73-177.04,678.37
	c0,0,115.82-582.41,676.72-830.59s610.54-546.01,610.54-546.01s-263.08,213.44-645.28,129.06c0,0-85.79-111.02-49.14-228.41
	l655.82-178.91l100.04-27.28l8.06-2.2l188.62,574.14L2248.06,2495.27l19.85,554.28C2267.91,3049.55,2089.22,3269.61,1750.03,3304.35
	z M3350,2511.82c-46.33,345.8-771.03,590.68-771.03,590.68l-44.67-603.92l373.93-349.11
	C2908.23,2149.47,3396.33,2166.01,3350,2511.82z"/>
</svg>
