<svg id="Ebene_1" data-name="Ebene 1" xmlns="http://www.w3.org/2000/svg" viewBox="0 0 1828.78 1758.54"><title>Fightcore_Logo</title><path id="Middle" d="M2615.56,1878.51,2709,1759.06,2511.31,1207a129.94,129.94,0,0,0-138-85.26c-126.51,15.39-325.74,57.61-451.47,100.62-509.19,174.58-438,465.54-438,465.54L1611.73,2426l-18.24,205.12q-6.16.42-12.37.75h0c-160.11-4-288.67-135.13-288.67-296.22a295.12,295.12,0,0,1,54.32-171q4.2-6,8.69-11.67C1202.69,2196.28,1090,2335,1085.83,2500.62c0,1.59-.13,11.12-.13,11.12-3.25,112.73,79.88,202.2,192.19,254.21,103.2,47.78,257,53.29,398.21,44.18q22.45-1.46,44.4-3.35c165.55-14.28,303.18-45.43,303.18-45.43,166.92,8.43,280.24,117.92,280.24,117.92l-10.72-196s476.26-186.06,598-452.52S2615.56,1878.51,2615.56,1878.51ZM2350,1197.66l.44-.12c4.79-1.27,47.27-11.41,76.77,18l.47.47c8.37,8.51,15.66,20.24,20.71,36.35l25.79,84.09-.26.07-38.43,10.51-107.07,29.3L2286.32,1216Zm-170.74,49,41.79,159.09-121.89,33.35-.58.15L2057.31,1282C2101.16,1269.31,2144.42,1256.72,2179.3,1246.65Zm-319.61,98.9c22.33-9.65,46.41-18.74,72.39-27q9-2.87,18.27-5.62l121.89,463.93-124.68,34.11L1829,1359.71Q1843.77,1352.45,1859.69,1345.55Zm-279.34,286.37s0,0,0-.07c.44-1.75,6.21-24.87,19.71-55.56,16.23-34.22,45-80.23,95-126.28,4.49-3.31,9.14-6.48,14-9.47l138.21,397.85-91.93,25.15c-27.85-37.85-135.92-197.29-174.92-231.58A.1.1,0,0,1,1580.35,1631.92Zm304,971.7-37.61,3.87-32.08,3.33C1722.49,2620.44,1712,2622,1712,2622l1.36-12.72.54-5,1.83-17.13,21.54-201-33-153-8.27-38.36-20-92.58-7.33-34-4.11-19.08-42.22-195.88,82.7,144,268.76-73.5s-114.09,164.62-81.93,313.93c0,0,53.6-269.52,313.17-384.38s282.54-252.67,282.54-252.67-121.75,98.77-298.62,59.72c0,0-39.71-51.38-22.75-105.7l303.5-82.8,46.3-12.63,3.72-1,87.29,265.69L2114.79,2229.2l9.19,256.51S2041.29,2587.54,1884.32,2603.62Zm740.42-366.76c-21.43,160-356.81,273.35-356.81,273.35l-20.67-279.48,173-161.56S2646.18,2076.83,2624.74,2236.86Z" transform="translate(-1085.61 -1120.73)"/></svg>